<?xml version="1.0" encoding="UTF-8"?>
<svg xmlns="http://www.w3.org/2000/svg" width="303.4mm" height="141.1mm" version="1.1" xmlns:xlink="http://www.w3.org/1999/xlink" viewBox="0 0 860 400">
  <defs>
    <style>
      .cls-1 {
        fill: url(#linear-gradient-15);
      }

      .cls-2 {
        fill: url(#linear-gradient-13);
      }

      .cls-3 {
        stroke: url(#linear-gradient-5);
      }

      .cls-3, .cls-4, .cls-5, .cls-6, .cls-7, .cls-8, .cls-9, .cls-10, .cls-11 {
        stroke-width: 2px;
      }

      .cls-12 {
        font-size: 22px;
        letter-spacing: .4em;
      }

      .cls-12, .cls-13, .cls-14, .cls-15, .cls-4, .cls-16, .cls-17, .cls-18, .cls-19, .cls-20, .cls-21, .cls-22, .cls-23, .cls-24, .cls-25, .cls-26, .cls-27 {
        isolation: isolate;
      }

      .cls-12, .cls-18, .cls-20, .cls-23, .cls-25, .cls-26 {
        font-weight: 700;
      }

      .cls-12, .cls-20, .cls-26 {
        font-family: Helvetica-Bold, Helvetica;
      }

      .cls-28 {
        fill: #fff;
      }

      .cls-13, .cls-14, .cls-17, .cls-29, .cls-21, .cls-22, .cls-24 {
        font-family: Helvetica, Helvetica;
      }

      .cls-13, .cls-19 {
        font-size: 14.1px;
      }

      .cls-14, .cls-16, .cls-22 {
        font-size: 12px;
      }

      .cls-15 {
        font-size: 9px;
      }

      .cls-30 {
        opacity: 0;
      }

      .cls-31 {
        opacity: .2;
      }

      .cls-32, .cls-4, .cls-33, .cls-27 {
        fill: none;
      }

      .cls-34 {
        fill: url(#linear-gradient-4);
      }

      .cls-4 {
        stroke: url(#linear-gradient-2);
      }

      .cls-4, .cls-35 {
        opacity: .5;
      }

      .cls-16 {
        font-family: CourierNewPSMT, 'Courier New';
      }

      .cls-16, .cls-22 {
        letter-spacing: .2em;
      }

      .cls-17 {
        font-size: 11px;
        letter-spacing: .2em;
      }

      .cls-36 {
        font-family: ArialMT, Arial;
      }

      .cls-5 {
        stroke: url(#linear-gradient-11);
      }

      .cls-6 {
        stroke: url(#linear-gradient-8);
      }

      .cls-18 {
        font-size: 24px;
        letter-spacing: .1em;
      }

      .cls-18, .cls-20, .cls-23, .cls-26 {
        fill: #f7931a;
      }

      .cls-18, .cls-23, .cls-25 {
        font-family: Georgia-Bold, Georgia;
      }

      .cls-37 {
        fill: url(#linear-gradient-14);
      }

      .cls-33 {
        stroke: #fff;
      }

      .cls-33, .cls-27 {
        stroke-width: .5px;
      }

      .cls-38 {
        stroke: #f7931a;
      }

      .cls-20 {
        letter-spacing: .2em;
      }

      .cls-20, .cls-24 {
        font-size: 13px;
      }

      .cls-21 {
        font-size: 14px;
        letter-spacing: .1em;
      }

      .cls-7 {
        stroke: url(#linear-gradient-7);
      }

      .cls-39 {
        font-family: MyriadPro-Regular, 'Myriad Pro';
      }

      .cls-23 {
        font-size: 26px;
      }

      .cls-8 {
        stroke: url(#linear-gradient-10);
      }

      .cls-9 {
        stroke: url(#linear-gradient-6);
      }

      .cls-24 {
        letter-spacing: .4em;
      }

      .cls-25 {
        font-size: 80px;
      }

      .cls-10 {
        stroke: url(#linear-gradient-12);
      }

      .cls-26 {
        font-size: 13px;
      }

      .cls-40 {
        fill: url(#linear-gradient);
      }

      .cls-11 {
        stroke: url(#linear-gradient-9);
      }

      .cls-27 {
        opacity: .2;
        stroke: url(#linear-gradient-3);
      }

      .cls-41 {
        fill: #fffffe;
      }
    </style>
    <linearGradient id="linear-gradient" x1="131.8" y1="620.3" x2="132.8" y2="619.3" gradientTransform="translate(-113388 248134.9) scale(860 -400)" gradientUnits="userSpaceOnUse">
      <stop offset="0" stop-color="#1a1a2e"/>
      <stop offset=".5" stop-color="#16213e"/>
      <stop offset="1" stop-color="#0f3460"/>
    </linearGradient>
    <linearGradient id="linear-gradient-2" x1="131.8" y1="619.8" x2="132.8" y2="619.8" gradientTransform="translate(-111798 240690.3) scale(848 -388)" gradientUnits="userSpaceOnUse">
      <stop offset="0" stop-color="#f7931a"/>
      <stop offset="1" stop-color="#ffb347"/>
    </linearGradient>
    <linearGradient id="linear-gradient-3" x1="131.8" y1="619.8" x2="132.8" y2="619.8" gradientTransform="translate(-109148 228282.5) scale(828 -368)" gradientUnits="userSpaceOnUse">
      <stop offset="0" stop-color="#f7931a"/>
      <stop offset="1" stop-color="#ffb347"/>
    </linearGradient>
    <linearGradient id="linear-gradient-4" x1="127.4" y1="616.6" x2="127.4" y2="615.6" gradientTransform="translate(-3254 32095.3) scale(26 -52)" gradientUnits="userSpaceOnUse">
      <stop offset="0" stop-color="#f7931a"/>
      <stop offset="1" stop-color="#e8820b"/>
    </linearGradient>
    <linearGradient id="linear-gradient-5" x1="0" y1="612.5" x2="1" y2="612.5" gradientTransform="translate(24 17187.9) scale(1 -28)" gradientUnits="userSpaceOnUse">
      <stop offset="0" stop-color="#f7931a"/>
      <stop offset="1" stop-color="#ffb347"/>
    </linearGradient>
    <linearGradient id="linear-gradient-6" x1="127.3" y1="399.9" x2="128.3" y2="399.9" gradientTransform="translate(-3540 423.9) scale(28 -1)" gradientUnits="userSpaceOnUse">
      <stop offset="0" stop-color="#f7931a"/>
      <stop offset="1" stop-color="#ffb347"/>
    </linearGradient>
    <linearGradient id="linear-gradient-7" x1="0" y1="612.5" x2="1" y2="612.5" gradientTransform="translate(836 17187.9) scale(1 -28)" gradientUnits="userSpaceOnUse">
      <stop offset="0" stop-color="#f7931a"/>
      <stop offset="1" stop-color="#ffb347"/>
    </linearGradient>
    <linearGradient id="linear-gradient-8" x1="127.3" y1="399.9" x2="128.3" y2="399.9" gradientTransform="translate(-2756 423.9) scale(28 -1)" gradientUnits="userSpaceOnUse">
      <stop offset="0" stop-color="#f7931a"/>
      <stop offset="1" stop-color="#ffb347"/>
    </linearGradient>
    <linearGradient id="linear-gradient-9" x1="0" y1="612.5" x2="1" y2="612.5" gradientTransform="translate(24 17511.9) scale(1 -28)" gradientUnits="userSpaceOnUse">
      <stop offset="0" stop-color="#f7931a"/>
      <stop offset="1" stop-color="#ffb347"/>
    </linearGradient>
    <linearGradient id="linear-gradient-10" x1="127.3" y1="399.9" x2="128.3" y2="399.9" gradientTransform="translate(-3540 775.9) scale(28 -1)" gradientUnits="userSpaceOnUse">
      <stop offset="0" stop-color="#f7931a"/>
      <stop offset="1" stop-color="#ffb347"/>
    </linearGradient>
    <linearGradient id="linear-gradient-11" x1="0" y1="612.5" x2="1" y2="612.5" gradientTransform="translate(836 17511.9) scale(1 -28)" gradientUnits="userSpaceOnUse">
      <stop offset="0" stop-color="#f7931a"/>
      <stop offset="1" stop-color="#ffb347"/>
    </linearGradient>
    <linearGradient id="linear-gradient-12" x1="127.3" y1="399.9" x2="128.3" y2="399.9" gradientTransform="translate(-2756 775.9) scale(28 -1)" gradientUnits="userSpaceOnUse">
      <stop offset="0" stop-color="#f7931a"/>
      <stop offset="1" stop-color="#ffb347"/>
    </linearGradient>
    <linearGradient id="linear-gradient-13" x1="379.9" y1="211" x2="598.2" y2="211" gradientTransform="matrix(1,0,0,1,0,0)" xlink:href="#linear-gradient-4"/>
    <linearGradient id="linear-gradient-14" x1="470" y1="232.3" x2="513.6" y2="232.3" gradientTransform="matrix(1,0,0,1,0,0)" xlink:href="#linear-gradient-4"/>
    <linearGradient id="linear-gradient-15" x1="481.4" y1="188.6" x2="517.9" y2="188.6" gradientTransform="matrix(1,0,0,1,0,0)" xlink:href="#linear-gradient-4"/>
  </defs>
  <!-- Generator: Adobe Illustrator 28.7.1, SVG Export Plug-In . SVG Version: 1.2.0 Build 142)  -->
  <g>
    <g id="Layer_1">
      <rect class="cls-40" y="0" width="860" height="400" rx="18" ry="18"/>
      <g class="cls-30">
        <line class="cls-33" y1="80" x2="860" y2="80"/>
        <line class="cls-33" y1="160" x2="860" y2="160"/>
        <line class="cls-33" y1="240" x2="860" y2="240"/>
        <line class="cls-33" y1="320" x2="860" y2="320"/>
      </g>
      <rect class="cls-4" x="6" y="6" width="848" height="388" rx="14" ry="14"/>
      <rect class="cls-27" x="16" y="16" width="828" height="368" rx="10" ry="10"/>
      <polygon class="cls-34" points="64 30 46 60 58 60 52 82 72 48 60 48 64 30"/>
      <text class="cls-18" transform="translate(82 52)"><tspan x="0" y="0">BITCOIN</tspan></text>
      <text class="cls-24" transform="translate(82 72)"><tspan x="0" y="0">LIGHTNING BEARER NOTE</tspan></text>
      <rect x="602.2" y="26" width="220" height="58" rx="10" ry="10"/>
      <text class="cls-22" transform="translate(654.6 49)"><tspan x="0" y="0">DENOMINATION</tspan></text>
      <text class="cls-23" transform="translate(635.3 71)"><tspan x="0" y="0">1,000 SATS</tspan></text>
      <line class="cls-32" x1="36" y1="96" x2="824" y2="96"/>
      <text class="cls-21" transform="translate(50 150)"><tspan x="0" y="0">THIS NOTE ENTITLES THE BEARER TO</tspan></text>
      <text class="cls-25" transform="translate(50 218)"><tspan x="0" y="0">1,000</tspan></text>
      <text class="cls-12" transform="translate(50 250)"><tspan x="0" y="0">SATOSHIS</tspan></text>
      <text class="cls-16" transform="translate(50 282)"><tspan x="0" y="0">SN: TEST-001</tspan></text>
      <text class="cls-14" transform="translate(50 306)"><tspan x="0" y="0">Backed 1:1 by Bitcoin on Lightning Network</tspan></text>
      <rect class="cls-28" x="622.2" y="121" width="180" height="180" rx="12" ry="12"/>
      <text class="cls-17" transform="translate(656.5 317)"><tspan x="0" y="0">SCAN TO REDEEM</tspan></text>
      <line class="cls-32" x1="36" y1="326" x2="824" y2="326"/>
      <text class="cls-20" transform="translate(50 340)"><tspan x="0" y="0">HOW TO REDEEM</tspan></text>
      <g>
        <circle class="cls-38" cx="43.2" cy="361.3" r="9.4"/>
        <text class="cls-26" transform="translate(39.6 366)"><tspan x="0" y="0">1</tspan></text>
        <text class="cls-13" transform="translate(59.7 366)"><tspan x="0" y="0">Scratch the panel to reveal QR</tspan></text>
      </g>
      <g>
        <circle class="cls-38" cx="326.4" cy="361.3" r="9.4"/>
        <text class="cls-26" transform="translate(322.8 366)"><tspan x="0" y="0">2</tspan></text>
        <text class="cls-13" transform="translate(342.9 366)"><tspan x="0" y="0">Scan with any Lightning wallet</tspan></text>
      </g>
      <g>
        <circle class="cls-38" cx="625.4" cy="361.3" r="9.4"/>
        <text class="cls-26" transform="translate(621.8 366)"><tspan x="0" y="0">3</tspan></text>
        <text class="cls-19" transform="translate(641.9 366)"><tspan class="cls-29" x="0" y="0">Sats instantly in your wallet </tspan><tspan class="cls-36" x="174.5" y="0">⚡</tspan></text>
      </g>
      <text class="cls-15" transform="translate(610.6 330.8)"><tspan class="cls-39" x="0" y="0">⚠</tspan><tspan class="cls-29" x="4.5" y="0" xml:space="preserve"> Single use </tspan><tspan class="cls-39" x="51.5" y="0">·</tspan><tspan class="cls-29" x="53.4" y="0" xml:space="preserve"> First scan redeems </tspan><tspan class="cls-39" x="134.9" y="0">·</tspan><tspan class="cls-29" x="136.8" y="0" xml:space="preserve"> Do not share QR</tspan></text>
      <text class="cls-15" transform="translate(673 113.5)"><tspan class="cls-36" x="0" y="0">⚡</tspan><tspan class="cls-29" x="6.8" y="0" xml:space="preserve"> LightningEasyBot</tspan></text>
      <g class="cls-31">
        <path class="cls-3" d="M24,24v28"/>
        <path class="cls-9" d="M24,24h28"/>
        <path class="cls-7" d="M836,24v28"/>
        <path class="cls-6" d="M836,24h-28"/>
        <path class="cls-11" d="M24,376v-28"/>
        <path class="cls-8" d="M24,376h28"/>
        <path class="cls-5" d="M836,376v-28"/>
        <path class="cls-10" d="M836,376h-28"/>
      </g>
      <g class="cls-35">
        <path class="cls-2" d="M379.9,212.4c0-17.8,3.4-33.2,10.3-47.8,8.7-18.6,21.7-33.5,38.8-44.8,12.2-8.1,25.5-13.4,39.8-16.1,4.7-.9,9.5-1.5,14.3-1.7,20.1-1,39,3.3,56.8,12.7,16,8.4,29,20.2,39.2,35,6.9,10.1,12,21,15.2,32.8,1.8,6.6,3,13.3,3.6,20.1.4,5.4.5,10.8.1,16.2-.9,13.5-4.3,26.3-10.1,38.6-6.9,14.6-16.5,27-28.8,37.4-12.3,10.3-26.3,17.6-41.8,21.8-7.4,2-14.8,3.1-22.5,3.5-6.5.3-12.9,0-19.3-.7-13.2-1.7-25.8-5.7-37.6-12-12.5-6.6-23.3-15.4-32.4-26.2-10.4-12.4-17.7-26.5-22-42.2-1.6-5.9-2.7-11.9-3.2-18-.3-3.4-.4-6.8-.5-8.5ZM423.3,248.4c2.7.7,5.2,1.5,7.7,2.1,4.6,1.3,9.2,2.5,13.9,3.7,1.7.4,3.3.8,5,1.2.4,0,.8.3,1.1.4-2,7.8-4,15.5-5.9,23.2,4.7,1.3,9.2,2.6,13.9,4,2-7.7,4-15.2,6-22.8,3.9.5,7.6,1.5,11.4,2.5-2,7.6-4,15.2-5.9,22.8,4.7,1.5,9.2,3,13.9,4.5,2.2-7.8,4.3-15.5,6.4-23.2.3,0,.6,0,.8,0,4.2.7,8.5,1.2,12.8,1.5,5,.3,9.9.1,14.8-.9,6.4-1.4,11.7-4.4,15.8-9.6,2.5-3.2,4.2-6.8,5.5-10.6,1.5-4.3,2.6-8.7,2.4-13.2-.1-4.2-1.3-8-3.7-11.4-2.5-3.5-5.7-6-9.4-8.1-.7-.4-1.3-.7-2.2-1.2.7-.2,1.1-.3,1.6-.4,7-2,11.9-6.3,14.5-13.2,1.1-2.8,1.6-5.7,1.9-8.6.6-5.8-.7-11-4.3-15.6-2.2-2.9-5-5.2-8.1-7.2-4.9-3.1-10.3-5.3-15.8-7.2-.4-.1-.7-.2-1.2-.4.7-2.6,1.3-5.1,2-7.7.7-2.5,1.3-5,1.9-7.5.6-2.5,1.4-5,1.9-7.6-4.7-1.3-9.2-2.7-13.8-3.9-1.8,7.5-3.6,14.8-5.5,22.3-3.8-1-7.6-1.5-11.4-2.5,2-7.5,4-14.8,5.9-22.3-4.5-1.2-8.9-2.3-13.4-3.5-2,7.6-4,15.2-6,22.8-9.5-2-18.8-4.6-28.3-6.9-1.3,5-2.6,9.9-4,14.8.3,0,.5.1.6.2,3.3.8,6.5,1.7,9.8,2.4,5,1,6.5,5.7,5.7,9.1-2.3,9-4.4,18-6.6,27-2.8,11.4-5.6,22.8-8.4,34.1-.5,2-1.7,3.1-3.7,3.6-1.1.3-2.1,0-3.1-.2-2.3-.6-4.5-1.1-6.8-1.7-.9-.2-1.9-.5-2.9-.7-2.3,5.3-4.6,10.5-6.9,15.8Z"/>
        <path class="cls-41" d="M423.3,248.4c2.3-5.3,4.6-10.5,6.9-15.8,1,.2,1.9.5,2.9.7,2.3.6,4.5,1.1,6.8,1.7,1,.3,2.1.4,3.1.2,1.9-.5,3.2-1.6,3.7-3.6,2.8-11.4,5.6-22.8,8.4-34.1,2.2-9,4.3-18,6.6-27,.9-3.4-.7-8.1-5.7-9.1-3.3-.7-6.5-1.6-9.8-2.4-.2,0-.3,0-.6-.2,1.3-4.9,2.6-9.9,4-14.8,9.5,2.3,18.7,5,28.3,6.9,2-7.6,4-15.2,6-22.8,4.5,1.2,8.9,2.3,13.4,3.5-2,7.4-3.9,14.8-5.9,22.3,3.8,1,7.6,1.5,11.4,2.5,1.8-7.4,3.6-14.8,5.5-22.3,4.6,1.2,9.2,2.6,13.8,3.9-.6,2.6-1.3,5.1-1.9,7.6-.6,2.5-1.3,5-1.9,7.5-.7,2.5-1.3,5.1-2,7.7.5.2.8.3,1.2.4,5.5,1.9,10.9,4,15.8,7.2,3.1,2,5.9,4.3,8.1,7.2,3.5,4.6,4.9,9.8,4.3,15.6-.3,2.9-.8,5.8-1.9,8.6-2.6,6.8-7.4,11.2-14.5,13.2-.5.1-.9.3-1.6.4.9.5,1.5.8,2.2,1.2,3.6,2.1,6.9,4.6,9.4,8.1,2.4,3.4,3.6,7.2,3.7,11.4.1,4.6-1,8.9-2.4,13.2-1.3,3.8-3,7.4-5.5,10.6-4.1,5.2-9.4,8.2-15.8,9.6-4.9,1.1-9.8,1.2-14.8.9-4.3-.3-8.6-.8-12.8-1.5-.2,0-.4,0-.8,0-2.1,7.7-4.3,15.4-6.4,23.2-4.7-1.5-9.2-3-13.9-4.5,2-7.6,4-15.1,5.9-22.8-3.8-1-7.4-2-11.4-2.5-2,7.5-3.9,15.1-6,22.8-4.6-1.3-9.2-2.6-13.9-4,2-7.7,3.9-15.4,5.9-23.2-.4-.1-.8-.3-1.1-.4-1.7-.4-3.3-.8-5-1.2-4.6-1.2-9.3-2.5-13.9-3.7-2.5-.7-5.1-1.4-7.7-2.1ZM470,245.3c.2.1.2.2.3.2,4.2,1,8.3,2,12.5,2.9,4.7,1,9.5,1.7,14.4,1.5,2.6,0,5.1-.4,7.5-1.3,6.7-2.3,10.5-9.4,8.5-16.1-.8-2.6-2.3-4.6-4.3-6.3-2.5-2.2-5.4-3.8-8.4-5.1-4.5-1.9-9.1-3.3-13.9-4.4-3-.7-6-1.4-9.1-2.1-2.5,10.2-4.9,20.4-7.4,30.6ZM481.4,200.7c.2.1.3.2.4.2,5.7,1.5,11.5,3.1,17.5,3.5,3,.2,5.9.2,8.8-.5,2.9-.7,5.5-2,7.4-4.5,3.1-4.1,4.1-11.3-1.5-16.5-2.5-2.4-5.5-4-8.6-5.3-3.7-1.5-7.5-2.6-11.3-3.6-1.9-.5-3.8-1-5.8-1.5-2.3,9.4-4.6,18.7-6.9,28.1Z"/>
        <path class="cls-37" d="M470,245.3c2.5-10.2,4.9-20.4,7.4-30.6,3.1.7,6.1,1.4,9.1,2.1,4.7,1.1,9.4,2.5,13.9,4.4,3,1.3,5.9,2.9,8.4,5.1,2,1.7,3.5,3.8,4.3,6.3,2,6.6-1.7,13.8-8.5,16.1-2.4.8-5,1.2-7.5,1.3-4.9.1-9.6-.5-14.4-1.5-4.2-.9-8.3-1.9-12.5-2.9,0,0-.1,0-.3-.2Z"/>
        <path class="cls-1" d="M481.4,200.7c2.3-9.4,4.6-18.7,6.9-28.1,2,.5,3.9,1,5.8,1.5,3.8,1,7.6,2.1,11.3,3.6,3.1,1.3,6.1,2.9,8.6,5.3,5.5,5.2,4.6,12.4,1.5,16.5-1.9,2.5-4.5,3.8-7.4,4.5-2.9.7-5.8.7-8.8.5-6-.4-11.7-2-17.5-3.5-.1,0-.2-.1-.4-.2Z"/>
      </g>
    </g>
  </g>
</svg>